<?xml version="1.0" encoding="UTF-8"?>
<svg xmlns="http://www.w3.org/2000/svg" width="512" height="73" viewBox="60 46 456.519 72.538" fill="none">
<path d="M98.0636 83.0566C96.6175 86.1295 94.7583 88.4407 92.5374 89.9256L92.5116 89.9385C90.2392 91.5395 87.5794 92.353 84.6226 92.353C79.587 92.353 75.5457 90.3258 72.2532 86.1554C69.361 82.5014 67.889 78.021 67.889 72.8434C67.889 67.1494 69.5417 62.385 72.8084 58.6793C76.0234 55.0769 79.7936 53.3339 84.3127 53.3339C87.9667 53.3339 91.1301 54.4572 93.7253 56.678L93.7382 56.6909C95.4684 58.1112 96.9145 60.0996 98.0378 62.6045L98.2961 63.1726H106.572L106.095 61.8685C104.455 57.3494 101.95 53.6954 98.6447 51.0098C94.7066 47.6915 89.8776 46.0129 84.3127 46.0129C77.4437 46.0129 71.7625 48.2854 67.4113 52.7657C62.5049 57.698 60 64.4508 60 72.8305C60 80.3968 62.1175 86.6977 66.288 91.5524C70.8329 96.9237 77.0047 99.6481 84.6226 99.6481C89.1675 99.6481 93.1959 98.5248 96.5917 96.3039L96.6046 96.291C100.659 93.5408 103.848 89.3445 106.108 83.8313L106.65 82.5014H98.3348L98.0636 83.0566Z" fill="#0A0A0A"></path>
<path d="M134.629 88.1956L117.483 47.0073H109.116L130.678 97.8794V118.538H138.49V97.8794L160.259 47.0073H151.789L134.629 88.1956Z" fill="#0A0A0A"></path>
<path d="M174.255 54.3024H196.683V98.6541H204.378V54.3024H226.806V98.6541H234.501V47.0073H166.56V98.6541H174.255V54.3024Z" fill="#0A0A0A"></path>
<path d="M277.213 72.2497C273.778 69.6802 269.117 68.3762 263.359 68.3762H251.209V47.0073H243.5V98.6541H264.947C270.525 98.6541 274.889 97.3371 277.91 94.7418C280.97 92.1078 282.52 88.3505 282.52 83.5732C282.532 78.6926 280.738 74.8836 277.213 72.2497ZM271.984 89.4609C270.098 90.7005 267.038 91.3331 262.868 91.3331H251.209V75.6842H262.171C266.612 75.6842 269.879 76.2781 271.867 77.4402C273.714 78.5247 274.618 80.5261 274.618 83.5603C274.63 86.3621 273.765 88.286 271.984 89.4609Z" fill="#0A0A0A"></path>
<path d="M320.429 89.9774L300.764 47.0073H289.931V98.6541H297.627V57.7628L316.426 98.6541H324.418L343.218 57.7628V98.6541H350.926V47.0073H340.08L320.429 89.9774Z" fill="#0A0A0A"></path>
<path d="M395.949 83.1727C394.697 85.9875 392.967 88.1954 390.797 89.7319L390.785 89.7448C388.448 91.462 385.53 92.34 382.108 92.34C378.092 92.34 374.813 90.9972 372.05 88.247C368.873 85.0708 367.169 80.8099 366.975 75.5807H404.445V72.2236C404.445 64.2055 402.392 57.7367 398.351 52.9981L398.338 52.9852C394.258 48.3499 388.693 46 381.798 46C374.981 46 369.442 48.3499 365.361 52.9981C361.243 57.7367 359.164 64.3733 359.164 72.7272C359.164 81.3651 361.565 88.2212 366.291 93.076C370.436 97.4272 375.82 99.6351 382.302 99.6351C387.001 99.6351 391.366 98.2019 395.304 95.3743C399.074 92.6241 402.005 88.7764 403.98 83.9216L404.523 82.5917H396.195L395.949 83.1727ZM371.12 57.9562C373.935 54.8316 377.447 53.308 381.837 53.308C386.227 53.308 389.739 54.8316 392.553 57.9562C395.11 60.8097 396.453 64.3088 396.569 68.3759H367.105C367.195 64.3346 368.538 60.8355 371.12 57.9562Z" fill="#0A0A0A"></path>
<path d="M441.631 47.0073H432.773L414.684 91.346H407.712V98.6541H466.912V91.346H459.733L441.631 47.0073ZM423.025 91.346L437.202 55.9422L451.379 91.346H423.025Z" fill="#0A0A0A"></path>
<path d="M508.901 71.2294C508.901 77.4012 507.235 82.5271 503.956 86.4652C500.676 90.4161 496.557 92.3271 491.38 92.3271C487.312 92.3271 484.394 90.9455 482.445 88.092C480.572 85.2127 479.63 81.0552 479.63 75.7097V47.0071H471.922V76.5102C471.922 83.4309 473.213 88.8667 475.769 92.6628L475.782 92.6757C479.01 97.311 484.459 99.648 491.986 99.648C496.48 99.648 500.431 98.473 503.723 96.136C505.841 94.6512 507.571 92.8177 508.914 90.6744V98.6409H516.519V46.9941H508.914V71.2294H508.901Z" fill="#0A0A0A"></path>
</svg>
